# xmcd
#
# Track frame offsets: 
#        150
#        15727
#        28328
#        46666
#        58469
#        66610
#        79790
#        88862
#        98581
#        108540
#        121175
#        130775
#        143567
#        156980
#        167100
#        177663
#        188880
#        200287
#        211259
#        222611
#        236758
#        249453
#        262120
#        268091
#        278792
#        289933
#        299536
#        311115
#        324492
#        335105
#        348749
#
# Disc length: 4796 seconds
#
# Revision: 3
# Processed by: cddbd v1.5.2PL0 Copyright (c) Steve Scherf et al.
# Submitted via: ExactAudioCopyFreeDBPlugin 1.0
#
DISCID=fd12ba1f
DTITLE=DJ Kaori - DJ Kaori's INMIX Ⅳ
DYEAR=2008
DGENRE=Club
TTITLE0=Rihanna: Don't StopThe Music
TTITLE1=Ne-Yo: Closer
TTITLE2=Chris Brown: Forever
TTITLE3=Colby O'Donis: What You Got (feat. Akon)
TTITLE4=C-Side: Boyfriend Girlfriend (feat. Keyshia Cole)
TTITLE5=Three 6 Mafia: Lolli Lolli <Pop That Body> (feat. Project Pat,
TTITLE5=Young D and Superpower)
TTITLE6=Lady Gaga: Just Dance (feat. Colby O'Donis)
TTITLE7=The Pussycat Dolls: When I Grow Up
TTITLE8=Mary J.Blige: Just Fine [Treat'Em Right Remix]
TTITLE9=Snoop Dogg: Sensual Seduction
TTITLE10=Git Fresh: Booty Music
TTITLE11=Kardinal Offishall: Dangerous (feat. Akon)
TTITLE12=Sean Kingston: Take You There
TTITLE13=Kevin Rudolf: Let It Rock (feat. Lil Wayne)
TTITLE14=Rick Ross: Here I Am (feat. Avery Storm, Nelly)
TTITLE15=Razah: Rain
TTITLE16=DJ Felli Fel: Finer Things (feat. Kanye Wsst, Fabolous, Jerma
TTITLE16=ine Dupri, Ne-Yo)
TTITLE17=LL Cool J: Baby (feat. The-DREAM)
TTITLE18=Nas - Hero (feat. Keri Hilson)
TTITLE19=Lil Wayne: Comfortable (feat. Babyface)
TTITLE20=Kanye West: Flashing Lights (feat. Dwele)
TTITLE21=Mariah Carey: I'll Be Lovin' U Long Time
TTITLE22=Ne-Yo: Miss Independent
TTITLE23=Jay-Z: I Know
TTITLE24=Nelly: Party Peaple (feat. Fergie)
TTITLE25=Lil Wayne: Got Money (feat. T-Pain)
TTITLE26=The DEY: I Need You
TTITLE27=Jordin Sparks: No Air Duet with Chris Brown
TTITLE28=Tami Chynn: Frozen (feat. Akon)
TTITLE29=Akon: Right Now <Na Na Na>
TTITLE30=Usher: Love in This Club [No Rap Version]
EXTD=YEAR: 2008
EXTT0=
EXTT1=
EXTT2=
EXTT3=
EXTT4=
EXTT5=
EXTT6=
EXTT7=
EXTT8=
EXTT9=
EXTT10=
EXTT11=
EXTT12=
EXTT13=
EXTT14=
EXTT15=
EXTT16=
EXTT17=
EXTT18=
EXTT19=
EXTT20=
EXTT21=
EXTT22=
EXTT23=
EXTT24=
EXTT25=
EXTT26=
EXTT27=
EXTT28=
EXTT29=
EXTT30=
PLAYORDER=
